<?xml version="1.0" encoding="utf-8"?>
<!-- Generator: Adobe Illustrator 24.0.0, SVG Export Plug-In . SVG Version: 6.00 Build 0)  -->
<svg version="1.1" id="Livello_1" xmlns="http://www.w3.org/2000/svg" xmlns:xlink="http://www.w3.org/1999/xlink" x="0px" y="0px"
	 viewBox="0 0 400 660" style="enable-background:new 0 0 400 660;" xml:space="preserve">
<style type="text/css">
	.st0{fill:#90120D;}
	.st1{fill:#D7AAA9;}
	.st2{fill:#FDE9E1;}
	.st3{fill:#EAB073;}
	.st4{fill:#262626;}
</style>
<g>
	<path class="st0" d="M10.8,439.4c-5.1,12-7.8,24.8-7.8,37.8v9.9c0,48.5,4.2,97,12.5,144.8l0,0c2.7,15.5,16.1,26.8,31.8,26.8h151.4
		h2.4h151.3c15.7,0,29.1-11.3,31.8-26.8l0,0c8.4-47.9,12.6-96.3,12.6-144.9v-9.9c0-13-2.7-25.9-7.8-37.8l0,0
		c-13.7-31.8-19.7-66.5-17.3-101l2.2-32.3c0.9-22.1,6.6-43.8,16.8-63.4l0,0c3.4-6.6,6.2-18.1,6.2-25.5v-63.7
		c0-55.3-24.7-107.6-67.3-142.8l0,0L201.2,1.2L70.4,10.6l0,0C27.8,45.8,3.1,98.2,3.1,153.4v63.7c0,7.4,2.8,18.9,6.2,25.5l0,0
		c10.2,19.7,15.9,41.3,16.8,63.4l2.2,32.3C30.5,372.9,24.6,407.5,10.8,439.4L10.8,439.4z"/>
	<g>
		<path class="st1" d="M368.3,531.8c4.2,0,7.7,3.2,8,7.5c0.2,3,4.7,74.6-29.2,100.9c-3.5,2.7-8.5,2.1-11.2-1.4s-2.1-8.5,1.4-11.2
			c22.6-17.6,24.3-69,23-87.2c-0.3-4.4,3-8.2,7.4-8.5C367.9,531.8,368.1,531.8,368.3,531.8z"/>
	</g>
	<g>
		<path class="st1" d="M324.3,37.9c2.1,0,4.2,0.6,5.8,1.9c0.6,0.5,14.1,11.7,25.7,34.2c10.6,20.4,21.7,54.6,14.7,101.5
			c-0.5,3.4-4.5,5.8-8.9,5.4s-7.5-3.5-7-6.9c6.6-44-3.6-75.9-13.3-94.8c-10.5-20.6-22.8-30.9-22.9-30.9c-3-2.5-2.8-6.4,0.4-8.7
			C320.3,38.5,322.3,37.9,324.3,37.9z"/>
	</g>
</g>
<g>
	<path class="st2" d="M342.1,240.4c6.2-15.9-4.1-33.9-20.5-34.8c-0.4,0-0.9,0-1.3,0h-6.4c-8,0-13.1-9.1-9-16.4l6.3-11.3
		c6.8-12.2,2.3-27.9-9.8-34.3l0,0c-63.5-28.6-135.2-30.3-199.8-4.6l-6.2,2.5c-11.7,4.7-17.5,18.5-12.7,30.6l7.3,18.5
		c2.8,7.2-2.2,15.2-9.7,15.2h0c-0.4,0-0.9,0-1.3,0c-16,0.7-26.6,17.9-21.4,33.7l5.4,16.2c17.7,53.6,18.1,111.7,1.3,165.6l-6.9,22.1
		c-5,15.9,5.7,32.8,21.6,33.5c0.4,0,0.9,0,1.3,0h0c7.5,0,12.6,7.9,9.7,15.2l-7.3,18.5c-4.8,12.1,1,26,12.7,30.6l6.2,2.5
		c64.6,25.7,136.3,24,199.8-4.6l0,0c12.1-6.3,16.6-22,9.8-34.3l-6.3-11.3c-4-7.3,1-16.4,9-16.4h6.4c0.4,0,0.9,0,1.3,0
		c16.3-0.9,26.7-18.7,20.7-34.6l-2.2-5.9c-23.6-62.4-23.2-132,1.2-194L342.1,240.4z"/>
	<path class="st3" d="M196,568.9c-33.2,0-65.7-6.2-96.8-18.6l-6.2-2.5c-7.4-2.9-13.2-8.7-16.3-16.3c-3.1-7.6-3.2-15.9-0.2-23.6
		l7.3-18.5c0.7-1.8,0-3.2-0.4-3.7c-0.3-0.5-1.3-1.8-3.2-1.8c-0.5,0-1,0-1.6,0c-9.5-0.4-18.1-5.4-23.6-13.7
		c-5.7-8.5-7.1-19.1-4.1-28.9l6.9-22c16.3-52.1,15.8-109.3-1.3-161.1l-5.4-16.2c-3.2-9.7-1.8-20.6,3.7-29.1
		c5.5-8.4,14.1-13.5,23.7-13.9c0.5,0,1.1,0,1.6,0c1.8,0,2.8-1.2,3.1-1.8c0.3-0.5,1.1-2,0.4-3.7l-7.3-18.5c-3-7.6-2.9-16,0.2-23.6
		c3.1-7.6,8.9-13.4,16.3-16.3l6.2-2.5c33-13.1,67.6-19.3,102.8-18.5c35.3,0.8,69.6,8.6,102,23.2l0.3,0.2c7.4,3.9,13,10.9,15.4,19.2
		c2.4,8.3,1.4,17.4-2.8,24.9l-6.3,11.3c-1,1.8-0.3,3.3,0,3.9c0.3,0.6,1.3,2,3.3,2h6.4c0.6,0,1.1,0,1.7,0c9.8,0.5,18.5,5.9,23.8,14.6
		c5.4,8.9,6.4,20.1,2.5,29.8v0l-0.9,2.2c-23.8,60.7-24.2,127.8-1.1,188.8l2.2,5.9c3.7,9.7,2.6,20.8-2.8,29.7
		c-5.3,8.7-14,14-23.8,14.5c-0.5,0-1.1,0-1.6,0h-6.4c-2,0-2.9,1.4-3.3,2c-0.3,0.6-1,2.2,0,3.9l6.3,11.3c4.2,7.5,5.2,16.6,2.8,24.9
		c-2.4,8.3-8,15.3-15.4,19.2l-0.3,0.2c-32.4,14.6-66.7,22.4-102,23.2C200,568.9,198,568.9,196,568.9z M80.2,470c5.8,0,11.1,3,14.3,8
		c3.2,5,3.8,11.3,1.6,16.9l-7.3,18.5c-1.6,4.1-1.6,8.6,0.1,12.7c1.7,4.1,4.8,7.2,8.8,8.8l6.2,2.5c63.3,25.1,132.4,23.6,194.6-4.4
		c4.1-2.2,7.1-5.9,8.4-10.6c1.3-4.7,0.8-9.6-1.6-13.8l-6.3-11.3c-3.1-5.6-3.1-12.3,0-17.9c3.1-5.6,8.6-9,14.8-9h6.4c0.3,0,0.6,0,1,0
		c5.4-0.3,10.2-3.2,13.2-8.1c3.1-5.1,3.7-11.4,1.6-16.9l-2.2-5.9c-24.3-64.4-23.9-135.2,1.2-199.3l0.9-2.2c2.2-5.5,1.6-11.9-1.5-17
		c-3-4.9-7.8-7.9-13.2-8.2c-0.3,0-0.6,0-1,0h-6.4c-6.2,0-11.7-3.4-14.8-9c-3.1-5.6-3.1-12.3,0-17.9l6.3-11.3
		c2.3-4.2,2.9-9.1,1.6-13.8c-1.3-4.6-4.3-8.4-8.4-10.6c-62.2-28-131.3-29.5-194.6-4.4l-6.2,2.5c-4,1.6-7.1,4.7-8.8,8.8
		c-1.7,4.1-1.7,8.6-0.1,12.7l7.3,18.5c2.2,5.6,1.6,11.9-1.6,16.9c-3.2,5-8.5,8-14.3,8c-0.4,0-0.7,0-1,0c-5.3,0.2-10.1,3.1-13.2,7.8
		c-3.2,5-4,11-2.1,16.7l5.4,16.2c18.1,54.7,18.5,115.1,1.3,170.1l-6.9,22c-1.8,5.7-0.9,11.7,2.3,16.6c3.1,4.7,7.9,7.5,13.2,7.7
		C79.6,470,79.9,470,80.2,470z"/>
</g>
<g>
	<path class="st4" d="M116.4,231.7v-1.8c0-0.3,0.3-0.5,0.8-0.5h8.9c5,0,9.2,2.1,12.7,6.1c3.4,4.1,5.2,10.7,5.2,19.9
		c0,4.7-0.5,9.3-1.6,13.6c-1.1,4.3-2.7,7.6-5,10s-6.1,3.5-11.6,3.5H117c-0.4,0-0.6-0.2-0.6-0.6v-1.7c0-0.5,0.3-1,0.8-1.4
		c0.8-0.6,1.3-1.5,1.3-2.7v-40.4c0-1.2-0.4-2-1.1-2.5C116.7,232.7,116.4,232.2,116.4,231.7z M126.4,233.5v45.1c2.3,0,4-0.5,5.3-1.6
		c1.3-1.1,2.2-3.5,2.7-7.2c0.6-3.7,0.9-7.9,0.9-12.7c0-5.2-0.2-9.3-0.6-12.3c-0.4-3-1-5.3-1.6-6.9c-0.6-1.6-1.4-2.6-2.4-3.3
		C129.7,234,128.2,233.6,126.4,233.5z"/>
	<path class="st4" d="M157.2,276.2c0,1.2,0.4,2.1,1.3,2.7c0.6,0.4,0.9,0.8,0.9,1.4v1.5c0,0.5-0.3,0.8-0.9,0.8h-10.7
		c-0.5,0-0.8-0.2-0.8-0.7v-1.6c0-0.5,0.3-1,0.9-1.4c0.9-0.6,1.3-1.5,1.3-2.7v-40.5c0-1.2-0.4-2-1.3-2.6c-0.6-0.4-0.9-0.9-0.9-1.4
		v-1.5c0-0.5,0.3-0.8,0.9-0.8h10.7c0.5,0,0.8,0.2,0.8,0.7v1.6c0,0.5-0.3,1-0.9,1.4c-0.9,0.6-1.3,1.5-1.3,2.6V276.2z"/>
	<path class="st4" d="M177.8,260.4h8.6c0.6,0,0.9,0.1,1.1,0.2c0.1,0.1,0.2,0.4,0.2,0.8c0,0.2,0,0.6-0.1,1.2
		c-0.1,1.5-0.2,2.7-0.2,3.7v9.6c0,0.6,0.2,1.1,0.5,1.4c0.3,0.2,0.4,0.5,0.4,0.9v1.2c0,0.5-0.3,0.9-0.9,1.3c-0.6,0.4-1.7,0.9-3.5,1.6
		s-3.8,1-5.9,1c-10.3,0-15.5-8.4-15.5-25.2c0-4.8,0.5-9.4,1.5-13.8s2.7-8.1,5.2-11.1s5.1-4.5,7.8-4.5c1.4,0,2.9,0.4,4.6,1.2
		c0.5,0.2,0.9,0.3,1.1,0.3c0.1,0,0.4-0.1,0.8-0.3c0.3-0.1,0.6-0.2,0.8-0.2h1.3c0.6,0,1,0.3,1,0.9v11.3c0,0.7-0.3,1-0.9,1h-1.4
		c-0.5,0-0.7-0.1-0.8-0.1s-0.3-0.8-0.6-2.2c-1.1-5.3-3.1-8-6-8c-1.4,0-2.5,0.6-3.4,1.9s-1.5,4.1-1.9,8.7c-0.4,4.5-0.6,9.1-0.6,13.6
		c0,4.7,0.2,8.6,0.6,11.7s0.8,5.4,1.3,6.9s1.1,2.6,1.8,3.2s1.5,0.9,2.4,0.9c2,0,3-1.4,3-4.3v-7.4c0-1.3-0.2-2.2-0.5-2.8s-1-1-2-1.5
		c-0.5-0.2-0.8-0.5-0.8-0.9v-1.4C176.9,260.6,177.2,260.4,177.8,260.4z"/>
	<path class="st4" d="M201.1,276.2c0,1.2,0.4,2.1,1.3,2.7c0.6,0.4,0.9,0.8,0.9,1.4v1.5c0,0.5-0.3,0.8-0.9,0.8h-10.7
		c-0.5,0-0.8-0.2-0.8-0.7v-1.6c0-0.5,0.3-1,0.9-1.4c0.9-0.6,1.3-1.5,1.3-2.7v-40.5c0-1.2-0.4-2-1.3-2.6c-0.6-0.4-0.9-0.9-0.9-1.4
		v-1.5c0-0.5,0.3-0.8,0.9-0.8h10.7c0.5,0,0.8,0.2,0.8,0.7v1.6c0,0.5-0.3,1-0.9,1.4c-0.9,0.6-1.3,1.5-1.3,2.6V276.2z"/>
	<path class="st4" d="M221.8,233.4v42.8c0,1.2,0.4,2.1,1.3,2.7c0.6,0.4,0.9,0.8,0.9,1.4v1.5c0,0.5-0.3,0.8-0.9,0.8h-10.7
		c-0.5,0-0.8-0.2-0.8-0.7v-1.6c0-0.5,0.3-1,0.9-1.4c0.9-0.6,1.3-1.5,1.3-2.7v-42.8h-1.5c-1.1,0-1.9,0.4-2.5,1.3s-1,2.7-1.4,5.6
		c-0.1,0.4-0.3,0.6-0.7,0.6h-1.3c-0.8,0-1.2-0.3-1.2-1V230c0-0.8,0.4-1.2,1.1-1.2c0.5,0,1.3,0.1,2.4,0.3c1.9,0.3,3.3,0.4,4.2,0.4
		h12.2c0.6-0.1,1.4-0.2,2.3-0.4c1.4-0.2,2.1-0.3,2.3-0.3c0.6,0,0.9,0.3,0.9,0.9v10.2c0,0.7-0.3,1-0.9,1h-1.3c-0.5,0-0.8-0.1-0.9-0.4
		c-0.1-0.3-0.3-1-0.5-2.2c-0.4-2-0.8-3.2-1.3-3.9c-0.4-0.6-1.2-0.9-2.3-0.9L221.8,233.4L221.8,233.4z"/>
	<path class="st4" d="M237.2,236.1l-0.3-2.3c-0.1-0.8-0.2-1.2-0.2-1.3c0-0.2,0.2-0.4,0.5-0.6l5.8-2.7c0.1-0.1,0.2-0.1,0.3-0.1
		c0.3,0,0.5,0.2,0.6,0.6l9.3,46.3c0.2,0.8,0.4,1.5,0.6,1.8c0.2,0.3,0.7,0.8,1.4,1.2c0.5,0.3,0.8,0.7,0.8,1.1v1.5
		c0,0.5-0.2,0.8-0.6,0.8H244c-0.6,0-0.9-0.3-0.9-0.8v-1.5c0-0.5,0.4-1,1.1-1.3c0.9-0.5,1.3-1.1,1.3-2c0-0.2,0-0.5-0.1-0.8l-1.4-7.1
		h-8.9l-1.4,6.9c-0.1,0.3-0.1,0.5-0.1,0.6c0,0.7,0.5,1.4,1.5,2.3c0.7,0.5,1,1,1,1.4v1.5c0,0.5-0.3,0.8-1,0.8H228
		c-0.8,0-1.2-0.3-1.2-0.8v-1.8c0-0.5,0.3-0.9,0.8-1.2c0.9-0.6,1.6-1.5,1.9-2.9L237.2,236.1z M239.6,247.1l-3.6,17.5h7.1L239.6,247.1
		z"/>
	<path class="st4" d="M259.9,276.2v-40.5c0-1.2-0.4-2-1.3-2.6c-0.6-0.4-0.9-0.9-0.9-1.4v-1.5c0-0.5,0.3-0.8,0.9-0.8h10.7
		c0.5,0,0.8,0.2,0.8,0.7v1.6c0,0.5-0.3,1-0.9,1.4c-0.9,0.6-1.3,1.5-1.3,2.6v42.8h2.9c1.7,0,3-0.5,4-1.6s1.6-2.9,2.1-5.4
		c0.2-1,0.3-1.5,0.4-1.7c0.1-0.1,0.3-0.2,0.6-0.2h1.6c0.6,0,0.9,0.3,0.9,0.8v12.2h-21.8c-0.8,0-1.1-0.3-1.1-1v-1.3
		c0-0.5,0.3-1,1-1.4C259.4,278.3,259.9,277.4,259.9,276.2z"/>
	<path class="st4" d="M135.5,306.6l5-10.4c0.2-0.4,0.3-0.8,0.3-1.1c0-0.2-0.2-0.5-0.6-0.8c-0.4-0.3-0.6-0.6-0.6-1v-1
		c0-0.4,0.2-0.7,0.6-0.7h7.2c0.5,0,0.8,0.2,0.8,0.7v1c0,0.3-0.1,0.5-0.2,0.6c-0.1,0.1-0.4,0.3-0.9,0.5c-1.7,0.8-2.9,2-3.7,3.6
		l-3.8,7.7l6.1,17.7c0.4,1.4,1.2,2.4,2.4,3.2c0.6,0.4,0.8,0.8,0.8,1.2v0.8c0,0.5-0.3,0.7-0.8,0.7H140c-0.5,0-0.8-0.2-0.8-0.7v-0.8
		c0-0.4,0.2-0.8,0.5-1c0.6-0.5,0.9-0.9,0.9-1.2c0-0.2-0.1-0.5-0.1-0.8l-5-14.5v14.5c0,0.8,0.3,1.5,0.9,1.9c0.4,0.3,0.6,0.6,0.6,1
		v1.1c0,0.4-0.2,0.6-0.6,0.6h-7.6c-0.4,0-0.5-0.2-0.5-0.5v-1.1c0-0.4,0.2-0.7,0.6-1c0.6-0.4,0.9-1,0.9-1.9v-28.8
		c0-0.8-0.3-1.5-0.9-1.9c-0.4-0.3-0.6-0.6-0.6-1v-1.1c0-0.4,0.2-0.6,0.6-0.6h7.6c0.4,0,0.5,0.2,0.5,0.5v1.1c0,0.4-0.2,0.7-0.6,1
		c-0.6,0.4-0.9,1-0.9,1.9L135.5,306.6L135.5,306.6z"/>
	<path class="st4" d="M167.2,329.6h-16.7c-0.4,0-0.6-0.2-0.6-0.6v-1.1c0-0.3,0.3-0.7,0.8-1.1s0.7-1,0.7-1.8v-28.8
		c0-0.8-0.3-1.5-0.9-1.9c-0.4-0.3-0.6-0.6-0.6-1v-1.2c0-0.3,0.2-0.5,0.6-0.5H163c0.2,0,0.7,0,1.3-0.1c0.6,0,0.9-0.1,1.1-0.1
		c0.5,0,0.8,0.1,0.8,0.4v7.1c0,0.4,0,0.6-0.1,0.7s-0.3,0.1-0.6,0.1h-0.9c-0.4,0-0.6-0.2-0.7-0.7c-0.2-1.3-0.5-2.4-1-3.3
		s-1.4-1.4-2.8-1.4h-3v13.8h1.1c0.7,0,1.2-0.1,1.4-0.4c0.3-0.3,0.6-1.1,1-2.5c0.1-0.5,0.2-0.7,0.3-0.8s0.2-0.1,0.4-0.1h1.1
		c0.4,0,0.6,0.2,0.6,0.6v9.2c0,0.4-0.2,0.6-0.6,0.6h-1.1c-0.2,0-0.4-0.1-0.5-0.2s-0.2-0.5-0.4-1.1c-0.3-1.1-0.6-1.9-0.9-2.1
		s-0.8-0.4-1.4-0.4h-1v15.8h3.3c1.2,0,2.1-0.3,2.5-0.9c0.5-0.6,1.1-2.1,1.8-4.7c0.2-0.6,0.4-0.9,0.9-0.9h1.1c0.4,0,0.6,0.2,0.6,0.6
		L167.2,329.6L167.2,329.6z"/>
	<path class="st4" d="M180,294.6v30.5c0,0.8,0.3,1.5,0.9,1.9c0.4,0.3,0.6,0.6,0.6,1v1.1c0,0.4-0.2,0.6-0.6,0.6h-7.6
		c-0.4,0-0.5-0.2-0.5-0.5v-1.1c0-0.4,0.2-0.7,0.6-1c0.6-0.4,0.9-1.1,0.9-1.9v-30.5h-1.1c-0.8,0-1.4,0.3-1.8,0.9
		c-0.4,0.6-0.7,1.9-1,4c0,0.3-0.2,0.4-0.5,0.4h-0.8c-0.6,0-0.8-0.2-0.8-0.7v-7.1c0-0.5,0.3-0.8,0.8-0.8c0.3,0,0.9,0.1,1.7,0.2
		c1.3,0.2,2.3,0.3,3,0.3h8.6c0.4-0.1,1-0.1,1.6-0.3c1-0.1,1.5-0.2,1.6-0.2c0.4,0,0.7,0.2,0.7,0.6v7.3c0,0.5-0.2,0.7-0.6,0.7h-0.9
		c-0.4,0-0.6-0.1-0.7-0.3c-0.1-0.2-0.2-0.7-0.4-1.6c-0.3-1.4-0.6-2.3-0.9-2.7s-0.9-0.6-1.6-0.6L180,294.6L180,294.6z"/>
	<path class="st4" d="M205.4,320.3c-0.2,3-0.9,5.4-2.2,7.1s-3,2.6-5.1,2.6c-3,0-5.4-1.6-7.3-4.9c-1.8-3.3-2.7-8.1-2.7-14.4
		c0-6.2,0.9-11,2.7-14.4s4.1-5.1,6.9-5.1c1.1,0,2.4,0.4,3.8,1.2c0.2,0.1,0.3,0.1,0.4,0.1c0.1,0,0.3-0.1,0.5-0.3
		c0.1-0.2,0.3-0.3,0.4-0.3h1.4c0.3,0,0.5,0.2,0.5,0.7v8c0,0.5-0.1,0.7-0.5,0.7h-1.1c-0.3,0-0.6-0.1-0.7-0.3
		c-0.1-0.2-0.3-0.7-0.5-1.5c-1-3.8-2.3-5.6-3.9-5.6c-1,0-1.7,0.5-2.2,1.5s-0.9,2.8-1.2,5.5s-0.4,5.4-0.4,8.2c0,6.1,0.3,10.5,1,13.3
		s1.9,4.3,3.6,4.3c2,0,3.4-2.3,4-6.8L205.4,320.3z"/>
	<path class="st4" d="M225.3,296.2V325c0,0.8,0.3,1.5,0.9,1.9c0.4,0.3,0.6,0.6,0.6,1v1.1c0,0.4-0.2,0.6-0.6,0.6h-7.6
		c-0.4,0-0.5-0.2-0.5-0.5V328c0-0.4,0.2-0.7,0.6-1c0.6-0.4,0.9-1.1,0.9-1.9v-13.9h-5.5v13.9c0,0.8,0.3,1.5,0.9,1.9
		c0.4,0.3,0.6,0.6,0.6,1v1.1c0,0.4-0.2,0.6-0.6,0.6h-7.6c-0.4,0-0.5-0.2-0.5-0.5v-1.1c0-0.4,0.2-0.7,0.6-1c0.6-0.4,0.9-1.1,0.9-1.9
		v-28.8c0-0.8-0.3-1.5-0.9-1.9c-0.4-0.3-0.6-0.6-0.6-1v-1.1c0-0.4,0.2-0.6,0.6-0.6h7.6c0.4,0,0.5,0.2,0.5,0.5v1.1
		c0,0.4-0.2,0.7-0.6,1c-0.6,0.4-0.9,1.1-0.9,1.9v11.4h5.6v-11.5c0-0.8-0.3-1.5-0.9-1.9c-0.4-0.3-0.6-0.6-0.6-1v-1.1
		c0-0.4,0.2-0.6,0.6-0.6h7.6c0.4,0,0.5,0.2,0.5,0.5v1.1c0,0.4-0.2,0.7-0.6,1C225.6,294.8,225.3,295.4,225.3,296.2z"/>
	<path class="st4" d="M246.1,320.8c0,2.9-0.7,5.2-2.2,6.8s-3.4,2.5-5.8,2.5c-2.4,0-4.3-0.8-5.9-2.4c-1.6-1.6-2.3-3.7-2.3-6.4v-25
		c0-0.8-0.3-1.5-0.9-1.9c-0.4-0.3-0.6-0.6-0.6-1v-1.1c0-0.4,0.2-0.6,0.6-0.6h7.6c0.4,0,0.5,0.2,0.5,0.5v1.1c0,0.4-0.2,0.7-0.6,1
		c-0.6,0.4-0.9,1-0.9,1.9v25.3c0,3.4,1.1,5.1,3.4,5.1c2.4,0,3.7-2,3.7-5.9v-24.4c0-0.8-0.3-1.5-0.9-1.9c-0.4-0.3-0.6-0.6-0.6-1v-1.1
		c0-0.4,0.2-0.6,0.6-0.6h5.4c0.4,0,0.5,0.2,0.5,0.5v1.1c0,0.4-0.2,0.7-0.6,1c-0.6,0.4-0.9,1-0.9,1.9L246.1,320.8L246.1,320.8z"/>
	<path class="st4" d="M256.5,312.2v12.9c0,0.8,0.3,1.5,0.9,1.9c0.4,0.3,0.6,0.6,0.6,1v1.1c0,0.4-0.2,0.6-0.6,0.6h-7.6
		c-0.4,0-0.5-0.2-0.5-0.5v-1.1c0-0.4,0.2-0.7,0.6-1c0.6-0.4,0.9-1.1,0.9-1.9v-28.8c0-0.8-0.3-1.5-0.9-1.9c-0.4-0.3-0.6-0.6-0.6-1
		v-1.1c0-0.4,0.2-0.6,0.6-0.6h6.6c3.6,0,6.3,0.9,8.3,2.8s2.9,4.3,2.9,7.4C267.7,308.8,263.9,312.2,256.5,312.2z M256.5,294.6v14.7
		c1.5,0,2.5-0.2,3.2-0.5c0.7-0.3,1.2-1,1.6-2s0.6-2.5,0.6-4.6s-0.2-3.6-0.6-4.7s-0.9-1.8-1.7-2.2
		C258.9,294.9,257.8,294.7,256.5,294.6z"/>
</g>
<g>
	<path class="st0" d="M134.4,371.8v10.3h1.2c0.5,0,0.8-0.1,1-0.3s0.4-0.6,0.6-1.2c0.1-0.5,0.2-0.7,0.3-0.8s0.2-0.1,0.4-0.1h0.8
		c0.3,0,0.5,0.1,0.5,0.4v6.1c0,0.3-0.1,0.4-0.4,0.4h-0.9c-0.2,0-0.3,0-0.4-0.1s-0.1-0.3-0.3-0.6c-0.2-0.8-0.5-1.3-0.7-1.4
		s-0.5-0.3-0.8-0.3h-1.2v9.5c0,0.6,0.2,1.1,0.7,1.4c0.3,0.2,0.5,0.4,0.5,0.7v0.8c0,0.3-0.2,0.4-0.5,0.4h-5.5c-0.3,0-0.4-0.1-0.4-0.4
		v-0.8c0-0.3,0.2-0.5,0.5-0.7c0.4-0.3,0.7-0.8,0.7-1.4v-20.8c0-0.6-0.2-1.1-0.7-1.4c-0.3-0.2-0.5-0.4-0.5-0.7V370
		c0-0.3,0.1-0.4,0.4-0.4h9.1c0.3,0,0.7,0,1.3-0.1c0.3,0,0.5-0.1,0.6-0.1c0.3,0,0.5,0,0.5,0.1s0.1,0.2,0.1,0.5v5.2
		c0,0.3-0.2,0.5-0.5,0.5h-0.7c-0.2,0-0.3,0-0.4-0.1s-0.1-0.4-0.2-0.9c-0.2-1.2-0.5-2-1-2.4s-1.1-0.6-2-0.6L134.4,371.8L134.4,371.8z
		"/>
	<path class="st0" d="M143.2,393.7v-20.8c0-0.6-0.2-1-0.7-1.4c-0.3-0.2-0.5-0.4-0.5-0.7V370c0-0.3,0.2-0.4,0.5-0.4h5.5
		c0.3,0,0.4,0.1,0.4,0.4v0.8c0,0.3-0.2,0.5-0.5,0.7c-0.4,0.3-0.7,0.8-0.7,1.4v22h1.5c0.9,0,1.6-0.3,2-0.8s0.8-1.5,1.1-2.8
		c0.1-0.5,0.2-0.8,0.2-0.9s0.1-0.1,0.3-0.1h0.8c0.3,0,0.5,0.1,0.5,0.4v6.3h-11.2c-0.4,0-0.6-0.2-0.6-0.5v-0.7c0-0.3,0.2-0.5,0.5-0.7
		C143,394.8,143.2,394.3,143.2,393.7z"/>
	<path class="st0" d="M159.8,393.7c0,0.6,0.2,1.1,0.7,1.4c0.3,0.2,0.5,0.4,0.5,0.7v0.8c0,0.3-0.2,0.4-0.5,0.4H155
		c-0.3,0-0.4-0.1-0.4-0.4v-0.8c0-0.3,0.2-0.5,0.5-0.7c0.4-0.3,0.7-0.8,0.7-1.4v-20.8c0-0.6-0.2-1-0.7-1.4c-0.3-0.2-0.5-0.4-0.5-0.7
		V370c0-0.3,0.2-0.4,0.5-0.4h5.5c0.3,0,0.4,0.1,0.4,0.4v0.8c0,0.3-0.2,0.5-0.5,0.7c-0.4,0.3-0.7,0.8-0.7,1.4V393.7z"/>
	<path class="st0" d="M167.3,384.4v9.3c0,0.6,0.2,1.1,0.7,1.4c0.3,0.2,0.5,0.4,0.5,0.7v0.8c0,0.3-0.2,0.4-0.5,0.4h-5.5
		c-0.3,0-0.4-0.1-0.4-0.4v-0.8c0-0.3,0.2-0.5,0.5-0.7c0.4-0.3,0.7-0.8,0.7-1.4v-20.8c0-0.6-0.2-1-0.7-1.4c-0.3-0.2-0.5-0.4-0.5-0.7
		V370c0-0.3,0.2-0.4,0.5-0.4h4.7c2.6,0,4.6,0.7,6,2s2.1,3.1,2.1,5.4C175.4,382,172.7,384.4,167.3,384.4z M167.3,371.8v10.6
		c1.1,0,1.8-0.1,2.3-0.4s0.9-0.7,1.2-1.4s0.4-1.8,0.4-3.3s-0.1-2.6-0.4-3.4s-0.7-1.3-1.2-1.6S168.3,371.8,167.3,371.8z"/>
	<path d="M183.6,382.3H183c-0.3,0-0.4-0.1-0.4-0.4V381c0-0.2,0.1-0.5,0.4-0.7c0.3-0.2,0.6-0.5,0.7-0.8s0.1-0.8,0.1-1.5v-2.9
		c0-0.3,0.2-0.4,0.6-0.5l2.1-0.2c0.2,0,0.3,0,0.4,0c0.2,0,0.2,0.1,0.2,0.4v5.6h1.8c0.3,0,0.5,0.1,0.5,0.4v1.1c0,0.3-0.1,0.4-0.4,0.4
		h-1.9V393c0,1.2,0.4,1.7,1.1,1.7c0.2,0,0.3,0,0.5-0.1c0.1,0,0.2-0.1,0.3-0.1c0.2,0,0.3,0.1,0.4,0.2l0.3,0.8c0,0.1,0.1,0.1,0.1,0.2
		c0,0.3-0.4,0.6-1.2,0.9s-1.5,0.6-2.2,0.6c-1.8,0-2.8-1.1-2.8-3.4L183.6,382.3L183.6,382.3z"/>
	<path d="M195.5,380.1c3.7,0,5.6,2.9,5.6,8.7c0,2.7-0.5,4.9-1.4,6.3s-2.2,2.2-4,2.2c-1.7,0-3.1-0.7-4-2.2s-1.4-3.6-1.4-6.5
		c0-3,0.5-5.2,1.5-6.6S194,380.1,195.5,380.1z M197.2,387c0-2-0.1-3.4-0.4-4.1s-0.6-1.1-1.2-1.1c-1,0-1.5,1.4-1.5,4.3v4
		c0,2.1,0.1,3.6,0.3,4.4s0.6,1.2,1.3,1.2c0.5,0,0.9-0.3,1.1-0.9s0.4-1.8,0.4-3.5L197.2,387L197.2,387z"/>
	<path d="M216.4,397.4c-2.4,0-4.3-1.2-5.5-3.7s-1.8-5.9-1.8-10.2s0.6-7.8,1.8-10.3s3-3.8,5.3-3.8c2.2,0,3.9,1.2,5.2,3.5
		s1.9,5.8,1.9,10.4c0,4.7-0.6,8.2-1.9,10.6C220.1,396.2,218.5,397.4,216.4,397.4z M216.2,395.5c0.5,0,1-0.3,1.5-1s0.8-2.5,0.9-5.6
		s0.3-5.8,0.3-8.4c0-2.3-0.1-4.2-0.4-5.7c-0.3-1.5-0.6-2.4-0.9-2.9c-0.3-0.4-0.8-0.6-1.3-0.6c-0.4,0-0.8,0.2-1.2,0.5
		s-0.6,0.9-0.8,1.8c-0.2,0.8-0.4,2.5-0.5,5s-0.2,5-0.2,7.7c0,3.3,0.2,5.7,0.7,7.1C214.7,394.7,215.3,395.5,216.2,395.5z"/>
	<path d="M230.1,384.4v9.3c0,0.6,0.2,1.1,0.7,1.4c0.3,0.2,0.5,0.4,0.5,0.7v0.8c0,0.3-0.2,0.4-0.5,0.4h-5.5c-0.3,0-0.4-0.1-0.4-0.4
		v-0.8c0-0.3,0.2-0.5,0.5-0.7c0.4-0.3,0.7-0.8,0.7-1.4v-20.8c0-0.6-0.2-1-0.7-1.4c-0.3-0.2-0.5-0.4-0.5-0.7V370
		c0-0.3,0.2-0.4,0.5-0.4h4.7c2.6,0,4.6,0.7,6,2s2.1,3.1,2.1,5.4C238.2,382,235.5,384.4,230.1,384.4z M230.1,371.8v10.6
		c1.1,0,1.8-0.1,2.3-0.4s0.9-0.7,1.2-1.4s0.4-1.8,0.4-3.3s-0.1-2.6-0.4-3.4s-0.7-1.3-1.2-1.6S231.1,371.8,230.1,371.8z"/>
	<path d="M252,397h-12c-0.3,0-0.4-0.1-0.4-0.4v-0.8c0-0.2,0.2-0.5,0.6-0.8c0.3-0.3,0.5-0.7,0.5-1.3v-20.8c0-0.6-0.2-1.1-0.7-1.4
		c-0.3-0.2-0.4-0.4-0.4-0.7V370c0-0.2,0.1-0.3,0.4-0.3h9c0.2,0,0.5,0,0.9-0.1c0.4,0,0.7-0.1,0.8-0.1c0.4,0,0.6,0.1,0.6,0.3v5.2
		c0,0.3,0,0.4-0.1,0.5s-0.2,0.1-0.4,0.1h-0.7c-0.3,0-0.4-0.2-0.5-0.5c-0.1-0.9-0.4-1.7-0.7-2.3s-1-1-2-1h-2.2v9.9h0.8
		c0.5,0,0.8-0.1,1-0.3s0.4-0.8,0.7-1.8c0.1-0.3,0.2-0.5,0.2-0.5s0.1-0.1,0.3-0.1h0.8c0.3,0,0.5,0.1,0.5,0.4v6.6
		c0,0.3-0.1,0.4-0.4,0.4h-0.8c-0.2,0-0.3,0-0.4-0.1s-0.2-0.4-0.3-0.8c-0.2-0.8-0.4-1.3-0.7-1.5s-0.6-0.3-1-0.3h-0.7v11.1h2.4
		c0.9,0,1.5-0.2,1.8-0.6s0.8-1.6,1.3-3.4c0.1-0.4,0.3-0.6,0.6-0.6h0.8c0.3,0,0.4,0.1,0.4,0.4L252,397L252,397z"/>
	<path d="M263.3,384.5V373c0-0.6-0.2-1.1-0.7-1.4c-0.3-0.2-0.5-0.4-0.5-0.7v-0.8c0-0.3,0.2-0.4,0.5-0.4h4c0.3,0,0.4,0.1,0.4,0.4v0.8
		c0,0.3-0.1,0.5-0.4,0.7c-0.5,0.3-0.7,0.8-0.7,1.4v23.6c0,0.4-0.2,0.6-0.5,0.6h-0.8c-0.4,0-0.6-0.2-0.7-0.6l-7.3-19.2v16.3
		c0,0.6,0.2,1.1,0.7,1.4c0.3,0.2,0.4,0.4,0.4,0.7v0.8c0,0.3-0.2,0.4-0.5,0.4h-3.9c-0.3,0-0.4-0.1-0.4-0.4v-0.8
		c0-0.3,0.2-0.5,0.5-0.7c0.4-0.3,0.7-0.8,0.7-1.4v-20.8c0-0.6-0.2-1-0.7-1.4c-0.3-0.2-0.5-0.4-0.5-0.7V370c0-0.3,0.2-0.4,0.5-0.4
		h3.7c0.3,0,0.5,0,0.5,0.1c0.1,0.1,0.2,0.2,0.3,0.5L263.3,384.5z"/>
	<path class="st0" d="M117.5,444.2h-0.9c-0.3,0-0.4-0.2-0.4-0.5v-6.6c0-0.4,0.2-0.7,0.5-0.7h0.8c0.2,0,0.3,0.1,0.4,0.2
		s0.2,0.6,0.3,1.4c0.5,3.1,1.6,4.6,3.3,4.6c0.9,0,1.6-0.4,2.1-1.2s0.8-1.7,0.8-2.8c0-1.1-0.3-2.2-0.8-3.2s-1.6-2.3-3.2-3.9
		c-1.2-1.3-2.1-2.2-2.6-2.9s-0.9-1.5-1.2-2.4s-0.5-1.8-0.5-2.9c0-1.9,0.5-3.5,1.5-4.8s2.2-1.9,3.6-1.9c0.6,0,1.3,0.2,2.1,0.5
		c0.3,0.2,0.6,0.2,0.7,0.2s0.2,0,0.4-0.1c0.1-0.1,0.3-0.1,0.5-0.1h0.7c0.3,0,0.5,0.2,0.5,0.5v5.8c0,0.3-0.1,0.4-0.4,0.4h-0.8
		c-0.2,0-0.3-0.1-0.4-0.2s-0.2-0.5-0.3-1.3c-0.6-2.5-1.4-3.8-2.7-3.8c-0.7,0-1.2,0.3-1.6,0.8s-0.6,1.2-0.6,2c0,0.9,0.2,1.7,0.7,2.6
		s1.4,2.1,2.8,3.5c1.8,1.9,3.1,3.5,3.8,4.9s1,2.9,1,4.6c0,2.2-0.6,4-1.7,5.4s-2.6,2.1-4.2,2.1c-0.7,0-1.6-0.2-2.5-0.6
		c-0.3-0.1-0.5-0.2-0.7-0.2c-0.1,0-0.3,0.1-0.5,0.2C117.7,444.2,117.6,444.2,117.5,444.2z"/>
	<path class="st0" d="M141.8,420.1v20.8c0,0.6,0.2,1.1,0.7,1.4c0.3,0.2,0.4,0.4,0.4,0.7v0.8c0,0.3-0.2,0.4-0.5,0.4H137
		c-0.3,0-0.4-0.1-0.4-0.4V443c0-0.3,0.1-0.5,0.4-0.7c0.5-0.3,0.7-0.8,0.7-1.4v-10.1h-4.1v10.1c0,0.6,0.2,1.1,0.7,1.4
		c0.3,0.2,0.5,0.4,0.5,0.7v0.8c0,0.3-0.2,0.4-0.5,0.4h-5.5c-0.3,0-0.4-0.1-0.4-0.4V443c0-0.3,0.2-0.5,0.5-0.7
		c0.4-0.3,0.7-0.8,0.7-1.4v-20.8c0-0.6-0.2-1-0.7-1.4c-0.3-0.2-0.5-0.4-0.5-0.7v-0.8c0-0.3,0.2-0.4,0.5-0.4h5.5
		c0.3,0,0.4,0.1,0.4,0.4v0.8c0,0.3-0.2,0.5-0.5,0.7c-0.4,0.3-0.7,0.8-0.7,1.4v8.3h4.1v-8.3c0-0.6-0.2-1-0.7-1.4
		c-0.3-0.2-0.5-0.4-0.5-0.7v-0.8c0-0.3,0.2-0.4,0.5-0.4h5.5c0.3,0,0.4,0.1,0.4,0.4v0.8c0,0.3-0.1,0.5-0.4,0.7
		C142.1,419.1,141.8,419.5,141.8,420.1z"/>
	<path class="st0" d="M149.3,420.3l-0.2-1.2c-0.1-0.4-0.1-0.6-0.1-0.6c0-0.1,0.1-0.2,0.3-0.3l3-1.4c0,0,0.1,0,0.2,0
		c0.2,0,0.3,0.1,0.3,0.3l4.8,23.8c0.1,0.4,0.2,0.7,0.3,0.9s0.4,0.4,0.7,0.6s0.4,0.4,0.4,0.6v0.8c0,0.3-0.1,0.4-0.3,0.4h-5.9
		c-0.3,0-0.5-0.1-0.5-0.4V443c0-0.3,0.2-0.5,0.6-0.7c0.5-0.2,0.7-0.6,0.7-1c0-0.1,0-0.3,0-0.4l-0.7-3.7h-4.6l-0.7,3.5
		c0,0.2-0.1,0.3-0.1,0.3c0,0.4,0.3,0.7,0.8,1.2c0.3,0.3,0.5,0.5,0.5,0.7v0.8c0,0.3-0.2,0.4-0.5,0.4h-3.7c-0.4,0-0.6-0.1-0.6-0.4
		v-0.9c0-0.2,0.1-0.4,0.4-0.6c0.5-0.3,0.8-0.8,0.9-1.5L149.3,420.3z M150.5,426l-1.8,9h3.6L150.5,426z"/>
	<path class="st0" d="M165,427.6l3.6-7.5c0.1-0.3,0.2-0.6,0.2-0.8c0-0.2-0.1-0.4-0.4-0.6c-0.3-0.2-0.5-0.4-0.5-0.7v-0.7
		c0-0.3,0.2-0.5,0.5-0.5h5.2c0.4,0,0.5,0.2,0.5,0.5v0.7c0,0.2,0,0.4-0.1,0.5s-0.3,0.2-0.6,0.4c-1.2,0.6-2.1,1.4-2.7,2.6L168,427
		l4.4,12.8c0.3,1,0.9,1.8,1.7,2.3c0.4,0.3,0.6,0.6,0.6,0.9v0.6c0,0.3-0.2,0.5-0.5,0.5h-5.8c-0.4,0-0.6-0.2-0.6-0.5v-0.5
		c0-0.3,0.1-0.6,0.4-0.8c0.4-0.3,0.7-0.6,0.7-0.9c0-0.2,0-0.3-0.1-0.5l-3.6-10.5v10.5c0,0.6,0.2,1.1,0.7,1.4
		c0.3,0.2,0.5,0.4,0.5,0.7v0.8c0,0.3-0.2,0.4-0.5,0.4h-5.5c-0.3,0-0.4-0.1-0.4-0.4V443c0-0.3,0.2-0.5,0.5-0.7
		c0.4-0.3,0.7-0.8,0.7-1.4v-20.8c0-0.6-0.2-1-0.7-1.4c-0.3-0.2-0.5-0.5-0.5-0.7v-0.8c0-0.3,0.2-0.4,0.5-0.4h5.5
		c0.3,0,0.4,0.1,0.4,0.4v0.8c0,0.3-0.2,0.5-0.5,0.7c-0.4,0.3-0.7,0.8-0.7,1.4v7.5H165z"/>
	<path class="st0" d="M187.9,444.2h-12c-0.3,0-0.4-0.1-0.4-0.4V443c0-0.2,0.2-0.5,0.6-0.8c0.3-0.3,0.5-0.7,0.5-1.3v-20.8
		c0-0.6-0.2-1.1-0.7-1.4c-0.3-0.2-0.4-0.4-0.4-0.7v-0.8c0-0.2,0.1-0.3,0.4-0.3h9c0.2,0,0.5,0,0.9-0.1c0.4,0,0.7-0.1,0.8-0.1
		c0.4,0,0.6,0.1,0.6,0.3v5.2c0,0.3,0,0.4-0.1,0.5s-0.2,0.1-0.4,0.1H186c-0.3,0-0.4-0.2-0.5-0.5c-0.1-0.9-0.4-1.7-0.7-2.3s-1-1-2-1
		h-2.2v9.9h0.8c0.5,0,0.8-0.1,1-0.3s0.4-0.8,0.7-1.8c0.1-0.3,0.2-0.5,0.2-0.5s0.1-0.1,0.3-0.1h0.8c0.3,0,0.5,0.1,0.5,0.4v6.6
		c0,0.3-0.1,0.4-0.4,0.4h-0.8c-0.2,0-0.3,0-0.4-0.1s-0.2-0.4-0.3-0.8c-0.2-0.8-0.4-1.3-0.7-1.5s-0.6-0.3-1-0.3h-0.7V442h2.4
		c0.9,0,1.5-0.2,1.8-0.6s0.8-1.6,1.3-3.4c0.1-0.4,0.3-0.6,0.6-0.6h0.8c0.3,0,0.4,0.1,0.4,0.4L187.9,444.2L187.9,444.2z"/>
	<path d="M195.8,429.5h-0.6c-0.3,0-0.4-0.1-0.4-0.4v-0.9c0-0.2,0.1-0.5,0.4-0.7c0.3-0.2,0.6-0.5,0.7-0.8s0.1-0.8,0.1-1.5v-2.9
		c0-0.3,0.2-0.4,0.6-0.5l2.1-0.2c0.2,0,0.3,0,0.4,0c0.2,0,0.2,0.1,0.2,0.4v5.6h1.8c0.3,0,0.5,0.1,0.5,0.4v1.1c0,0.3-0.1,0.4-0.4,0.4
		h-1.9v10.7c0,1.2,0.4,1.7,1.1,1.7c0.2,0,0.3,0,0.5-0.1c0.1,0,0.2-0.1,0.3-0.1c0.2,0,0.3,0.1,0.4,0.2l0.3,0.8c0,0.1,0.1,0.1,0.1,0.2
		c0,0.3-0.4,0.6-1.2,0.9s-1.5,0.6-2.2,0.6c-1.8,0-2.8-1.1-2.8-3.4L195.8,429.5L195.8,429.5z"/>
	<path d="M207.6,427.3c3.7,0,5.6,2.9,5.6,8.7c0,2.7-0.5,4.9-1.4,6.3s-2.2,2.2-4,2.2c-1.7,0-3.1-0.7-4-2.2s-1.4-3.6-1.4-6.5
		c0-3,0.5-5.2,1.5-6.6S206.1,427.3,207.6,427.3z M209.3,434.2c0-2-0.1-3.4-0.4-4.1s-0.6-1.1-1.2-1.1c-1,0-1.5,1.4-1.5,4.3v4
		c0,2.1,0.1,3.6,0.3,4.4s0.6,1.2,1.3,1.2c0.5,0,0.9-0.3,1.1-0.9s0.4-1.8,0.4-3.5L209.3,434.2L209.3,434.2z"/>
	<path d="M226,431.6v9.3c0,0.6,0.2,1.1,0.7,1.4c0.3,0.2,0.5,0.4,0.5,0.7v0.8c0,0.3-0.2,0.4-0.5,0.4h-5.5c-0.3,0-0.4-0.1-0.4-0.4V443
		c0-0.3,0.2-0.5,0.5-0.7c0.4-0.3,0.7-0.8,0.7-1.4v-20.8c0-0.6-0.2-1-0.7-1.4c-0.3-0.2-0.5-0.4-0.5-0.7v-0.8c0-0.3,0.2-0.4,0.5-0.4
		h4.7c2.6,0,4.6,0.7,6,2s2.1,3.1,2.1,5.4C234.1,429.2,231.4,431.6,226,431.6z M226,419v10.6c1.1,0,1.8-0.1,2.3-0.4s0.9-0.7,1.2-1.4
		s0.4-1.8,0.4-3.3s-0.1-2.6-0.4-3.4s-0.7-1.3-1.2-1.6S227,419,226,419z"/>
	<path d="M243.1,444.6c-2.4,0-4.3-1.2-5.5-3.7s-1.8-5.9-1.8-10.2c0-4.3,0.6-7.8,1.8-10.3s3-3.8,5.3-3.8c2.2,0,3.9,1.2,5.2,3.5
		s1.9,5.8,1.9,10.4c0,4.7-0.6,8.2-1.9,10.6C246.9,443.4,245.2,444.6,243.1,444.6z M242.9,442.7c0.5,0,1-0.3,1.5-1s0.8-2.5,0.9-5.6
		s0.3-5.8,0.3-8.4c0-2.3-0.1-4.2-0.4-5.7c-0.3-1.5-0.6-2.4-0.9-2.9s-0.8-0.6-1.3-0.6c-0.4,0-0.8,0.2-1.2,0.5
		c-0.3,0.3-0.6,0.9-0.8,1.8c-0.2,0.8-0.4,2.5-0.5,5s-0.2,5-0.2,7.7c0,3.3,0.2,5.7,0.7,7.1C241.4,441.9,242,442.7,242.9,442.7z"/>
	<path d="M264.4,437.9c0,2.1-0.5,3.7-1.6,4.9c-1.1,1.2-2.5,1.8-4.2,1.8c-1.7,0-3.1-0.6-4.2-1.8c-1.1-1.2-1.7-2.7-1.7-4.6v-18.1
		c0-0.6-0.2-1-0.7-1.4c-0.3-0.2-0.5-0.5-0.5-0.7v-0.8c0-0.3,0.2-0.4,0.5-0.4h5.5c0.3,0,0.4,0.1,0.4,0.4v0.8c0,0.3-0.2,0.5-0.5,0.7
		c-0.4,0.3-0.7,0.8-0.7,1.4v18.3c0,2.4,0.8,3.7,2.4,3.7c1.8,0,2.7-1.4,2.7-4.3v-17.6c0-0.6-0.2-1-0.7-1.4c-0.3-0.2-0.5-0.5-0.5-0.7
		v-0.8c0-0.3,0.2-0.4,0.5-0.4h3.9c0.3,0,0.4,0.1,0.4,0.4v0.8c0,0.3-0.2,0.5-0.5,0.7c-0.4,0.3-0.7,0.8-0.7,1.4v17.7H264.4z"/>
	<path d="M271.9,431.4v9.5c0,0.6,0.2,1.1,0.7,1.4c0.3,0.2,0.5,0.4,0.5,0.7v0.8c0,0.3-0.2,0.4-0.5,0.4h-5.5c-0.3,0-0.4-0.1-0.4-0.4
		V443c0-0.3,0.2-0.5,0.5-0.7c0.4-0.3,0.7-0.8,0.7-1.4v-20.8c0-0.6-0.2-1-0.7-1.4c-0.3-0.2-0.5-0.4-0.5-0.7v-0.8
		c0-0.3,0.2-0.4,0.5-0.4h4.6c2.6,0,4.6,0.6,5.9,1.8s2,2.9,2,5.1c0,3.5-1.6,5.8-4.9,6.8c1,0.5,1.7,1,2.2,1.6s0.9,1.5,1.2,2.6l1.3,5.6
		c0.2,0.7,0.3,1.2,0.5,1.5s0.4,0.5,0.8,0.7c0.1,0.1,0.2,0.2,0.2,0.3v1c0,0.3-0.1,0.4-0.4,0.4H277c-0.3,0-0.6-0.2-0.6-0.6l-2.4-9.7
		c-0.3-1.1-0.5-1.8-0.9-2.1S272.4,431.4,271.9,431.4z M271.9,419v10.3c1.3,0,2.2-0.4,2.8-1.2s0.9-2.2,0.9-4.3c0-2-0.3-3.3-0.9-3.9
		S273.1,419,271.9,419z"/>
</g>
</svg>
