<?xml version="1.0" encoding="utf-8"?>
<!-- Generator: Adobe Illustrator 24.0.0, SVG Export Plug-In . SVG Version: 6.00 Build 0)  -->
<svg version="1.1" id="Livello_1" xmlns="http://www.w3.org/2000/svg" xmlns:xlink="http://www.w3.org/1999/xlink" x="0px" y="0px"
	 viewBox="0 0 300 170" style="enable-background:new 0 0 300 170;" xml:space="preserve">
<style type="text/css">
	.st0{fill:#F4ECEB;}
	.st1{fill:#C7BFBD;}
</style>
<path class="st0" d="M294,65.4l-3.7-35.5c-0.8-7.6-6.5-13.7-13.8-15l0,0C193.3,0.4,108.2,0.4,24.9,14.7l-1.2,0.2
	c-7.4,1.3-13,7.4-13.8,15L6.3,64.5C101.6,48.2,198.9,48.5,294,65.4z"/>
<g>
	<path class="st1" d="M291.2,60.9c1.7,0.3,2.8,1.8,2.5,3.5c-0.3,1.7-1.9,2.8-3.5,2.5c-92-15.7-185.2-15.2-277.1,1.5L9.6,69
		c-1.6,0.3-3.2-0.8-3.5-2.4s0.8-3.2,2.4-3.5l3.5-0.6c47.7-8.7,95.8-13,143.9-13C201.1,49.5,246.3,53.3,291.2,60.9z"/>
</g>
</svg>
